# xmcd
#
# Track frame offsets: 
#        151
#        17738
#        36905
#        53302
#        70767
#        88074
#        103605
#        118440
#        134909
#        150558
#        168607
#        186130
#        202757
#        218026
#        236303
#        256450
#
# Disc length: 3630 seconds
#
# Revision: 7
# Processed by: cddbd v1.5.2PL0 Copyright (c) Steve Scherf et al.
# Submitted via: ExactAudioCopy v1.0b2
#
DISCID=dd0e2c10
DTITLE=蔡琴 - 蔡琴老歌 Disc3
DYEAR=1998
DGENRE=Pop
TTITLE0=出塞曲
TTITLE1=恰似你的温柔
TTITLE2=抉择
TTITLE3=你的眼神
TTITLE4=我的思念
TTITLE5=我不哭泣
TTITLE6=盼与寄
TTITLE7=秋梦
TTITLE8=相思雨
TTITLE9=枯叶
TTITLE10=昨日
TTITLE11=船
TTITLE12=远飞的梦舟
TTITLE13=细雨
TTITLE14=午夜钟声
TTITLE15=赠别
EXTD=
EXTT0=
EXTT1=
EXTT2=
EXTT3=
EXTT4=
EXTT5=
EXTT6=
EXTT7=
EXTT8=
EXTT9=
EXTT10=
EXTT11=
EXTT12=
EXTT13=
EXTT14=
EXTT15=
PLAYORDER=
